solid VIRTUAL_SURFACE
 facet normal 0.999902 -0 0.0140244
  outer loop
   vertex 0.499803 -75 0.0140231
   vertex 0.5 0 0
   vertex 0.499803 0 0.0140231
  endloop
 endfacet
 facet normal 0.999902 0 0.0140244
  outer loop
   vertex 0.499803 -75 0.0140231
   vertex 0.5 -75 0
   vertex 0.5 0 0
  endloop
 endfacet
 facet normal 0.999115 -0 0.0420624
  outer loop
   vertex 0.499213 -75 0.0280352
   vertex 0.499803 0 0.0140231
   vertex 0.499213 0 0.0280352
  endloop
 endfacet
 facet normal 0.999115 0 0.0420624
  outer loop
   vertex 0.499213 -75 0.0280352
   vertex 0.499803 -75 0.0140231
   vertex 0.499803 0 0.0140231
  endloop
 endfacet
 facet normal 0.997542 -0 0.0700678
  outer loop
   vertex 0.498231 -75 0.0420253
   vertex 0.499213 0 0.0280352
   vertex 0.498231 0 0.0420253
  endloop
 endfacet
 facet normal 0.997542 0 0.0700678
  outer loop
   vertex 0.498231 -75 0.0420253
   vertex 0.499213 -75 0.0280352
   vertex 0.499213 0 0.0280352
  endloop
 endfacet
 facet normal 0.995185 -0 0.0980165
  outer loop
   vertex 0.496856 -75 0.0559822
   vertex 0.498231 0 0.0420253
   vertex 0.496856 0 0.0559822
  endloop
 endfacet
 facet normal 0.995185 0 0.0980165
  outer loop
   vertex 0.496856 -75 0.0559822
   vertex 0.498231 -75 0.0420253
   vertex 0.498231 0 0.0420253
  endloop
 endfacet
 facet normal 0.992044 -0 0.125889
  outer loop
   vertex 0.495091 -75 0.0698952
   vertex 0.496856 0 0.0559822
   vertex 0.495091 0 0.0698952
  endloop
 endfacet
 facet normal 0.992044 0 0.125889
  outer loop
   vertex 0.495091 -75 0.0698952
   vertex 0.496856 -75 0.0559822
   vertex 0.496856 0 0.0559822
  endloop
 endfacet
 facet normal 0.988123 -0 0.153664
  outer loop
   vertex 0.492936 -75 0.0837531
   vertex 0.495091 0 0.0698952
   vertex 0.492936 0 0.0837531
  endloop
 endfacet
 facet normal 0.988123 0 0.153664
  outer loop
   vertex 0.492936 -75 0.0837531
   vertex 0.495091 -75 0.0698952
   vertex 0.495091 0 0.0698952
  endloop
 endfacet
 facet normal 0.983425 -0 0.181317
  outer loop
   vertex 0.490393 -75 0.0975452
   vertex 0.492936 0 0.0837531
   vertex 0.490393 0 0.0975452
  endloop
 endfacet
 facet normal 0.983425 0 0.181317
  outer loop
   vertex 0.490393 -75 0.0975452
   vertex 0.492936 -75 0.0837531
   vertex 0.492936 0 0.0837531
  endloop
 endfacet
 facet normal 0.977953 -0 0.208826
  outer loop
   vertex 0.487464 -75 0.11126
   vertex 0.490393 0 0.0975452
   vertex 0.487464 0 0.11126
  endloop
 endfacet
 facet normal 0.977953 0 0.208826
  outer loop
   vertex 0.487464 -75 0.11126
   vertex 0.490393 -75 0.0975452
   vertex 0.490393 0 0.0975452
  endloop
 endfacet
 facet normal 0.971711 -0 0.236172
  outer loop
   vertex 0.484152 -75 0.124888
   vertex 0.487464 0 0.11126
   vertex 0.484152 0 0.124888
  endloop
 endfacet
 facet normal 0.971711 0 0.236172
  outer loop
   vertex 0.484152 -75 0.124888
   vertex 0.487464 -75 0.11126
   vertex 0.487464 0 0.11126
  endloop
 endfacet
 facet normal 0.964705 -0 0.263333
  outer loop
   vertex 0.480459 -75 0.138418
   vertex 0.484152 0 0.124888
   vertex 0.480459 0 0.138418
  endloop
 endfacet
 facet normal 0.964705 0 0.263333
  outer loop
   vertex 0.480459 -75 0.138418
   vertex 0.484152 -75 0.124888
   vertex 0.484152 0 0.124888
  endloop
 endfacet
 facet normal 0.956941 -0 0.290283
  outer loop
   vertex 0.476388 -75 0.151838
   vertex 0.480459 0 0.138418
   vertex 0.476388 0 0.151838
  endloop
 endfacet
 facet normal 0.956941 0 0.290283
  outer loop
   vertex 0.476388 -75 0.151838
   vertex 0.480459 -75 0.138418
   vertex 0.480459 0 0.138418
  endloop
 endfacet
 facet normal 0.948422 -0 0.317011
  outer loop
   vertex 0.471942 -75 0.16514
   vertex 0.476388 0 0.151838
   vertex 0.471942 0 0.16514
  endloop
 endfacet
 facet normal 0.948422 0 0.317011
  outer loop
   vertex 0.471942 -75 0.16514
   vertex 0.476388 -75 0.151838
   vertex 0.476388 0 0.151838
  endloop
 endfacet
 facet normal 0.939159 -0 0.343482
  outer loop
   vertex 0.467124 -75 0.178311
   vertex 0.471942 0 0.16514
   vertex 0.467124 0 0.178311
  endloop
 endfacet
 facet normal 0.939159 0 0.343482
  outer loop
   vertex 0.467124 -75 0.178311
   vertex 0.471942 -75 0.16514
   vertex 0.471942 0 0.16514
  endloop
 endfacet
 facet normal 0.929155 -0 0.36969
  outer loop
   vertex 0.46194 -75 0.191342
   vertex 0.467124 0 0.178311
   vertex 0.46194 0 0.191342
  endloop
 endfacet
 facet normal 0.929155 0 0.36969
  outer loop
   vertex 0.46194 -75 0.191342
   vertex 0.467124 -75 0.178311
   vertex 0.467124 0 0.178311
  endloop
 endfacet
 facet normal 0.918422 -0 0.395603
  outer loop
   vertex 0.456392 -75 0.204222
   vertex 0.46194 0 0.191342
   vertex 0.456392 0 0.204222
  endloop
 endfacet
 facet normal 0.918422 0 0.395603
  outer loop
   vertex 0.456392 -75 0.204222
   vertex 0.46194 -75 0.191342
   vertex 0.46194 0 0.191342
  endloop
 endfacet
 facet normal 0.906965 -0 0.421205
  outer loop
   vertex 0.450484 -75 0.216942
   vertex 0.456392 0 0.204222
   vertex 0.450484 0 0.216942
  endloop
 endfacet
 facet normal 0.906965 0 0.421205
  outer loop
   vertex 0.450484 -75 0.216942
   vertex 0.456392 -75 0.204222
   vertex 0.456392 0 0.204222
  endloop
 endfacet
 facet normal 0.894795 -0 0.446477
  outer loop
   vertex 0.444223 -75 0.229491
   vertex 0.450484 0 0.216942
   vertex 0.444223 0 0.229491
  endloop
 endfacet
 facet normal 0.894795 0 0.446477
  outer loop
   vertex 0.444223 -75 0.229491
   vertex 0.450484 -75 0.216942
   vertex 0.450484 0 0.216942
  endloop
 endfacet
 facet normal 0.881922 0 0.471396
  outer loop
   vertex 0.437612 -75 0.241859
   vertex 0.444223 -75 0.229491
   vertex 0.444223 0 0.229491
  endloop
 endfacet
 facet normal 0.881922 -0 0.471396
  outer loop
   vertex 0.437612 -75 0.241859
   vertex 0.444223 0 0.229491
   vertex 0.437612 0 0.241859
  endloop
 endfacet
 facet normal 0.868353 -0 0.495947
  outer loop
   vertex 0.430656 -75 0.254038
   vertex 0.437612 0 0.241859
   vertex 0.430656 0 0.254038
  endloop
 endfacet
 facet normal 0.868353 0 0.495947
  outer loop
   vertex 0.430656 -75 0.254038
   vertex 0.437612 -75 0.241859
   vertex 0.437612 0 0.241859
  endloop
 endfacet
 facet normal 0.854102 -0 0.520105
  outer loop
   vertex 0.423362 -75 0.266016
   vertex 0.430656 0 0.254038
   vertex 0.423362 0 0.266016
  endloop
 endfacet
 facet normal 0.854102 0 0.520105
  outer loop
   vertex 0.423362 -75 0.266016
   vertex 0.430656 -75 0.254038
   vertex 0.430656 0 0.254038
  endloop
 endfacet
 facet normal 0.839179 -0 0.543855
  outer loop
   vertex 0.415735 -75 0.277785
   vertex 0.423362 0 0.266016
   vertex 0.415735 0 0.277785
  endloop
 endfacet
 facet normal 0.823596 -0 0.567177
  outer loop
   vertex 0.415735 -75 0.277785
   vertex 0.415735 0 0.277785
   vertex 0.40778 0 0.289336
  endloop
 endfacet
 facet normal 0.839179 0 0.543855
  outer loop
   vertex 0.415735 -75 0.277785
   vertex 0.423362 -75 0.266016
   vertex 0.423362 0 0.266016
  endloop
 endfacet
 facet normal 0.823596 -0 0.567177
  outer loop
   vertex 0.40778 -75 0.289336
   vertex 0.415735 -75 0.277785
   vertex 0.40778 0 0.289336
  endloop
 endfacet
 facet normal 0.807365 -0 0.590052
  outer loop
   vertex 0.399505 -75 0.300659
   vertex 0.40778 0 0.289336
   vertex 0.399505 0 0.300659
  endloop
 endfacet
 facet normal 0.807365 0 0.590052
  outer loop
   vertex 0.399505 -75 0.300659
   vertex 0.40778 -75 0.289336
   vertex 0.40778 0 0.289336
  endloop
 endfacet
 facet normal 0.790499 -0 0.612464
  outer loop
   vertex 0.390916 -75 0.311745
   vertex 0.399505 0 0.300659
   vertex 0.390916 0 0.311745
  endloop
 endfacet
 facet normal 0.790499 0 0.612464
  outer loop
   vertex 0.390916 -75 0.311745
   vertex 0.399505 -75 0.300659
   vertex 0.399505 0 0.300659
  endloop
 endfacet
 facet normal 0.77301 -0 0.634394
  outer loop
   vertex 0.382019 -75 0.322586
   vertex 0.390916 0 0.311745
   vertex 0.382019 0 0.322586
  endloop
 endfacet
 facet normal 0.77301 0 0.634394
  outer loop
   vertex 0.382019 -75 0.322586
   vertex 0.390916 -75 0.311745
   vertex 0.390916 0 0.311745
  endloop
 endfacet
 facet normal 0.754914 0 0.655824
  outer loop
   vertex 0.372821 -75 0.333173
   vertex 0.382019 -75 0.322586
   vertex 0.382019 0 0.322586
  endloop
 endfacet
 facet normal 0.754914 -0 0.655824
  outer loop
   vertex 0.372821 -75 0.333173
   vertex 0.382019 0 0.322586
   vertex 0.372821 0 0.333173
  endloop
 endfacet
 facet normal 0.736225 0 0.676737
  outer loop
   vertex 0.36333 -75 0.343498
   vertex 0.372821 -75 0.333173
   vertex 0.372821 0 0.333173
  endloop
 endfacet
 facet normal 0.736225 -0 0.676737
  outer loop
   vertex 0.36333 -75 0.343498
   vertex 0.372821 0 0.333173
   vertex 0.36333 0 0.343498
  endloop
 endfacet
 facet normal 0.716954 0 0.69712
  outer loop
   vertex 0.353553 -75 0.353553
   vertex 0.36333 -75 0.343498
   vertex 0.36333 0 0.343498
  endloop
 endfacet
 facet normal 0.716954 -0 0.69712
  outer loop
   vertex 0.353553 -75 0.353553
   vertex 0.36333 0 0.343498
   vertex 0.353553 0 0.353553
  endloop
 endfacet
 facet normal 0.69712 -0 0.716954
  outer loop
   vertex 0.343498 -75 0.36333
   vertex 0.353553 0 0.353553
   vertex 0.343498 0 0.36333
  endloop
 endfacet
 facet normal 0.69712 0 0.716954
  outer loop
   vertex 0.343498 -75 0.36333
   vertex 0.353553 -75 0.353553
   vertex 0.353553 0 0.353553
  endloop
 endfacet
 facet normal 0.676737 -0 0.736225
  outer loop
   vertex 0.333173 -75 0.372821
   vertex 0.343498 0 0.36333
   vertex 0.333173 0 0.372821
  endloop
 endfacet
 facet normal 0.676737 0 0.736225
  outer loop
   vertex 0.333173 -75 0.372821
   vertex 0.343498 -75 0.36333
   vertex 0.343498 0 0.36333
  endloop
 endfacet
 facet normal 0.655824 -0 0.754914
  outer loop
   vertex 0.322586 -75 0.382019
   vertex 0.333173 0 0.372821
   vertex 0.322586 0 0.382019
  endloop
 endfacet
 facet normal 0.655824 0 0.754914
  outer loop
   vertex 0.322586 -75 0.382019
   vertex 0.333173 -75 0.372821
   vertex 0.333173 0 0.372821
  endloop
 endfacet
 facet normal 0.634394 0 0.77301
  outer loop
   vertex 0.311745 -75 0.390916
   vertex 0.322586 -75 0.382019
   vertex 0.322586 0 0.382019
  endloop
 endfacet
 facet normal 0.634394 -0 0.77301
  outer loop
   vertex 0.311745 -75 0.390916
   vertex 0.322586 0 0.382019
   vertex 0.311745 0 0.390916
  endloop
 endfacet
 facet normal 0.612464 -0 0.790499
  outer loop
   vertex 0.300659 -75 0.399505
   vertex 0.311745 0 0.390916
   vertex 0.300659 0 0.399505
  endloop
 endfacet
 facet normal 0.612464 0 0.790499
  outer loop
   vertex 0.300659 -75 0.399505
   vertex 0.311745 -75 0.390916
   vertex 0.311745 0 0.390916
  endloop
 endfacet
 facet normal 0.590052 -0 0.807365
  outer loop
   vertex 0.289336 -75 0.40778
   vertex 0.300659 0 0.399505
   vertex 0.289336 0 0.40778
  endloop
 endfacet
 facet normal 0.590052 0 0.807365
  outer loop
   vertex 0.289336 -75 0.40778
   vertex 0.300659 -75 0.399505
   vertex 0.300659 0 0.399505
  endloop
 endfacet
 facet normal 0.567177 -0 0.823596
  outer loop
   vertex 0.277785 -75 0.415735
   vertex 0.289336 0 0.40778
   vertex 0.277785 0 0.415735
  endloop
 endfacet
 facet normal 0.567177 0 0.823596
  outer loop
   vertex 0.277785 -75 0.415735
   vertex 0.289336 -75 0.40778
   vertex 0.289336 0 0.40778
  endloop
 endfacet
 facet normal 0.543855 -0 0.839179
  outer loop
   vertex 0.266016 -75 0.423362
   vertex 0.277785 0 0.415735
   vertex 0.266016 0 0.423362
  endloop
 endfacet
 facet normal 0.543855 0 0.839179
  outer loop
   vertex 0.266016 -75 0.423362
   vertex 0.277785 -75 0.415735
   vertex 0.277785 0 0.415735
  endloop
 endfacet
 facet normal 0.520105 -0 0.854102
  outer loop
   vertex 0.254038 -75 0.430656
   vertex 0.266016 0 0.423362
   vertex 0.254038 0 0.430656
  endloop
 endfacet
 facet normal 0.520105 0 0.854102
  outer loop
   vertex 0.254038 -75 0.430656
   vertex 0.266016 -75 0.423362
   vertex 0.266016 0 0.423362
  endloop
 endfacet
 facet normal 0.495947 -0 0.868353
  outer loop
   vertex 0.241859 -75 0.437612
   vertex 0.254038 0 0.430656
   vertex 0.241859 0 0.437612
  endloop
 endfacet
 facet normal 0.495947 0 0.868353
  outer loop
   vertex 0.241859 -75 0.437612
   vertex 0.254038 -75 0.430656
   vertex 0.254038 0 0.430656
  endloop
 endfacet
 facet normal 0.471396 -0 0.881922
  outer loop
   vertex 0.229491 -75 0.444223
   vertex 0.241859 0 0.437612
   vertex 0.229491 0 0.444223
  endloop
 endfacet
 facet normal 0.446477 -0 0.894795
  outer loop
   vertex 0.229491 -75 0.444223
   vertex 0.229491 0 0.444223
   vertex 0.216942 0 0.450484
  endloop
 endfacet
 facet normal 0.471396 0 0.881922
  outer loop
   vertex 0.229491 -75 0.444223
   vertex 0.241859 -75 0.437612
   vertex 0.241859 0 0.437612
  endloop
 endfacet
 facet normal 0.446477 -0 0.894795
  outer loop
   vertex 0.216942 -75 0.450484
   vertex 0.229491 -75 0.444223
   vertex 0.216942 0 0.450484
  endloop
 endfacet
 facet normal 0.421205 0 0.906965
  outer loop
   vertex 0.204222 -75 0.456392
   vertex 0.216942 -75 0.450484
   vertex 0.216942 0 0.450484
  endloop
 endfacet
 facet normal 0.421205 -0 0.906965
  outer loop
   vertex 0.204222 -75 0.456392
   vertex 0.216942 0 0.450484
   vertex 0.204222 0 0.456392
  endloop
 endfacet
 facet normal 0.395603 -0 0.918422
  outer loop
   vertex 0.191342 -75 0.46194
   vertex 0.204222 0 0.456392
   vertex 0.191342 0 0.46194
  endloop
 endfacet
 facet normal 0.395603 0 0.918422
  outer loop
   vertex 0.191342 -75 0.46194
   vertex 0.204222 -75 0.456392
   vertex 0.204222 0 0.456392
  endloop
 endfacet
 facet normal 0.36969 -0 0.929155
  outer loop
   vertex 0.178311 -75 0.467124
   vertex 0.191342 0 0.46194
   vertex 0.178311 0 0.467124
  endloop
 endfacet
 facet normal 0.36969 0 0.929155
  outer loop
   vertex 0.178311 -75 0.467124
   vertex 0.191342 -75 0.46194
   vertex 0.191342 0 0.46194
  endloop
 endfacet
 facet normal 0.343482 -0 0.939159
  outer loop
   vertex 0.16514 -75 0.471942
   vertex 0.178311 0 0.467124
   vertex 0.16514 0 0.471942
  endloop
 endfacet
 facet normal 0.343482 0 0.939159
  outer loop
   vertex 0.16514 -75 0.471942
   vertex 0.178311 -75 0.467124
   vertex 0.178311 0 0.467124
  endloop
 endfacet
 facet normal 0.317011 -0 0.948422
  outer loop
   vertex 0.151838 -75 0.476388
   vertex 0.16514 0 0.471942
   vertex 0.151838 0 0.476388
  endloop
 endfacet
 facet normal 0.317011 0 0.948422
  outer loop
   vertex 0.151838 -75 0.476388
   vertex 0.16514 -75 0.471942
   vertex 0.16514 0 0.471942
  endloop
 endfacet
 facet normal 0.290283 -0 0.956941
  outer loop
   vertex 0.138418 -75 0.480459
   vertex 0.151838 0 0.476388
   vertex 0.138418 0 0.480459
  endloop
 endfacet
 facet normal 0.290283 0 0.956941
  outer loop
   vertex 0.138418 -75 0.480459
   vertex 0.151838 -75 0.476388
   vertex 0.151838 0 0.476388
  endloop
 endfacet
 facet normal 0.263333 -0 0.964705
  outer loop
   vertex 0.124888 -75 0.484152
   vertex 0.138418 0 0.480459
   vertex 0.124888 0 0.484152
  endloop
 endfacet
 facet normal 0.263333 0 0.964705
  outer loop
   vertex 0.124888 -75 0.484152
   vertex 0.138418 -75 0.480459
   vertex 0.138418 0 0.480459
  endloop
 endfacet
 facet normal 0.236172 -0 0.971711
  outer loop
   vertex 0.11126 -75 0.487464
   vertex 0.124888 0 0.484152
   vertex 0.11126 0 0.487464
  endloop
 endfacet
 facet normal 0.236172 0 0.971711
  outer loop
   vertex 0.11126 -75 0.487464
   vertex 0.124888 -75 0.484152
   vertex 0.124888 0 0.484152
  endloop
 endfacet
 facet normal 0.208826 -0 0.977953
  outer loop
   vertex 0.0975452 -75 0.490393
   vertex 0.11126 0 0.487464
   vertex 0.0975452 0 0.490393
  endloop
 endfacet
 facet normal 0.208826 0 0.977953
  outer loop
   vertex 0.0975452 -75 0.490393
   vertex 0.11126 -75 0.487464
   vertex 0.11126 0 0.487464
  endloop
 endfacet
 facet normal 0.181317 -0 0.983425
  outer loop
   vertex 0.0837531 -75 0.492936
   vertex 0.0975452 0 0.490393
   vertex 0.0837531 0 0.492936
  endloop
 endfacet
 facet normal 0.181317 0 0.983425
  outer loop
   vertex 0.0837531 -75 0.492936
   vertex 0.0975452 -75 0.490393
   vertex 0.0975452 0 0.490393
  endloop
 endfacet
 facet normal 0.153664 -0 0.988123
  outer loop
   vertex 0.0698952 -75 0.495091
   vertex 0.0837531 0 0.492936
   vertex 0.0698952 0 0.495091
  endloop
 endfacet
 facet normal 0.153664 0 0.988123
  outer loop
   vertex 0.0698952 -75 0.495091
   vertex 0.0837531 -75 0.492936
   vertex 0.0837531 0 0.492936
  endloop
 endfacet
 facet normal 0.125889 -0 0.992044
  outer loop
   vertex 0.0559822 -75 0.496856
   vertex 0.0698952 0 0.495091
   vertex 0.0559822 0 0.496856
  endloop
 endfacet
 facet normal 0.125889 0 0.992044
  outer loop
   vertex 0.0559822 -75 0.496856
   vertex 0.0698952 -75 0.495091
   vertex 0.0698952 0 0.495091
  endloop
 endfacet
 facet normal 0.0980165 -0 0.995185
  outer loop
   vertex 0.0420253 -75 0.498231
   vertex 0.0559822 0 0.496856
   vertex 0.0420253 0 0.498231
  endloop
 endfacet
 facet normal 0.0980165 0 0.995185
  outer loop
   vertex 0.0420253 -75 0.498231
   vertex 0.0559822 -75 0.496856
   vertex 0.0559822 0 0.496856
  endloop
 endfacet
 facet normal 0.0700678 -0 0.997542
  outer loop
   vertex 0.0280352 -75 0.499213
   vertex 0.0420253 0 0.498231
   vertex 0.0280352 0 0.499213
  endloop
 endfacet
 facet normal 0.0700678 0 0.997542
  outer loop
   vertex 0.0280352 -75 0.499213
   vertex 0.0420253 -75 0.498231
   vertex 0.0420253 0 0.498231
  endloop
 endfacet
 facet normal 0.0420624 -0 0.999115
  outer loop
   vertex 0.0140231 -75 0.499803
   vertex 0.0280352 0 0.499213
   vertex 0.0140231 0 0.499803
  endloop
 endfacet
 facet normal 0.0420624 0 0.999115
  outer loop
   vertex 0.0140231 -75 0.499803
   vertex 0.0280352 -75 0.499213
   vertex 0.0280352 0 0.499213
  endloop
 endfacet
 facet normal 0.0140244 -0 0.999902
  outer loop
   vertex 0 -75 0.5
   vertex 0.0140231 0 0.499803
   vertex 0 0 0.5
  endloop
 endfacet
 facet normal 0.0140244 0 0.999902
  outer loop
   vertex 0 -75 0.5
   vertex 0.0140231 -75 0.499803
   vertex 0.0140231 0 0.499803
  endloop
 endfacet
 facet normal -0.0140244 0 0.999902
  outer loop
   vertex -0.0140231 -75 0.499803
   vertex 0 0 0.5
   vertex -0.0140231 0 0.499803
  endloop
 endfacet
 facet normal -0.0140244 0 0.999902
  outer loop
   vertex -0.0140231 -75 0.499803
   vertex 0 -75 0.5
   vertex 0 0 0.5
  endloop
 endfacet
 facet normal -0.0420624 0 0.999115
  outer loop
   vertex -0.0280352 -75 0.499213
   vertex -0.0140231 0 0.499803
   vertex -0.0280352 0 0.499213
  endloop
 endfacet
 facet normal -0.0420624 0 0.999115
  outer loop
   vertex -0.0280352 -75 0.499213
   vertex -0.0140231 -75 0.499803
   vertex -0.0140231 0 0.499803
  endloop
 endfacet
 facet normal -0.0700678 0 0.997542
  outer loop
   vertex -0.0420253 -75 0.498231
   vertex -0.0280352 0 0.499213
   vertex -0.0420253 0 0.498231
  endloop
 endfacet
 facet normal -0.0700678 0 0.997542
  outer loop
   vertex -0.0420253 -75 0.498231
   vertex -0.0280352 -75 0.499213
   vertex -0.0280352 0 0.499213
  endloop
 endfacet
 facet normal -0.0980165 0 0.995185
  outer loop
   vertex -0.0559822 -75 0.496856
   vertex -0.0420253 -75 0.498231
   vertex -0.0420253 0 0.498231
  endloop
 endfacet
 facet normal -0.0980165 0 0.995185
  outer loop
   vertex -0.0559822 -75 0.496856
   vertex -0.0420253 0 0.498231
   vertex -0.0559822 0 0.496856
  endloop
 endfacet
 facet normal -0.125889 0 0.992044
  outer loop
   vertex -0.0698952 -75 0.495091
   vertex -0.0559822 0 0.496856
   vertex -0.0698952 0 0.495091
  endloop
 endfacet
 facet normal -0.125889 0 0.992044
  outer loop
   vertex -0.0698952 -75 0.495091
   vertex -0.0559822 -75 0.496856
   vertex -0.0559822 0 0.496856
  endloop
 endfacet
 facet normal -0.153664 0 0.988123
  outer loop
   vertex -0.0837531 -75 0.492936
   vertex -0.0698952 -75 0.495091
   vertex -0.0698952 0 0.495091
  endloop
 endfacet
 facet normal -0.153664 0 0.988123
  outer loop
   vertex -0.0837531 -75 0.492936
   vertex -0.0698952 0 0.495091
   vertex -0.0837531 0 0.492936
  endloop
 endfacet
 facet normal -0.181317 0 0.983425
  outer loop
   vertex -0.0975452 -75 0.490393
   vertex -0.0837531 0 0.492936
   vertex -0.0975452 0 0.490393
  endloop
 endfacet
 facet normal -0.181317 0 0.983425
  outer loop
   vertex -0.0975452 -75 0.490393
   vertex -0.0837531 -75 0.492936
   vertex -0.0837531 0 0.492936
  endloop
 endfacet
 facet normal -0.208826 0 0.977953
  outer loop
   vertex -0.11126 -75 0.487464
   vertex -0.0975452 -75 0.490393
   vertex -0.0975452 0 0.490393
  endloop
 endfacet
 facet normal -0.208826 0 0.977953
  outer loop
   vertex -0.11126 -75 0.487464
   vertex -0.0975452 0 0.490393
   vertex -0.11126 0 0.487464
  endloop
 endfacet
 facet normal -0.236172 0 0.971711
  outer loop
   vertex -0.124888 -75 0.484152
   vertex -0.11126 0 0.487464
   vertex -0.124888 0 0.484152
  endloop
 endfacet
 facet normal -0.236172 0 0.971711
  outer loop
   vertex -0.124888 -75 0.484152
   vertex -0.11126 -75 0.487464
   vertex -0.11126 0 0.487464
  endloop
 endfacet
 facet normal -0.263333 0 0.964705
  outer loop
   vertex -0.138418 -75 0.480459
   vertex -0.124888 -75 0.484152
   vertex -0.124888 0 0.484152
  endloop
 endfacet
 facet normal -0.263333 0 0.964705
  outer loop
   vertex -0.138418 -75 0.480459
   vertex -0.124888 0 0.484152
   vertex -0.138418 0 0.480459
  endloop
 endfacet
 facet normal -0.290283 0 0.956941
  outer loop
   vertex -0.151838 -75 0.476388
   vertex -0.138418 0 0.480459
   vertex -0.151838 0 0.476388
  endloop
 endfacet
 facet normal -0.290283 0 0.956941
  outer loop
   vertex -0.151838 -75 0.476388
   vertex -0.138418 -75 0.480459
   vertex -0.138418 0 0.480459
  endloop
 endfacet
 facet normal -0.317011 0 0.948422
  outer loop
   vertex -0.16514 -75 0.471942
   vertex -0.151838 -75 0.476388
   vertex -0.151838 0 0.476388
  endloop
 endfacet
 facet normal -0.317011 0 0.948422
  outer loop
   vertex -0.16514 -75 0.471942
   vertex -0.151838 0 0.476388
   vertex -0.16514 0 0.471942
  endloop
 endfacet
 facet normal -0.343482 0 0.939159
  outer loop
   vertex -0.178311 -75 0.467124
   vertex -0.16514 0 0.471942
   vertex -0.178311 0 0.467124
  endloop
 endfacet
 facet normal -0.343482 0 0.939159
  outer loop
   vertex -0.178311 -75 0.467124
   vertex -0.16514 -75 0.471942
   vertex -0.16514 0 0.471942
  endloop
 endfacet
 facet normal -0.36969 0 0.929155
  outer loop
   vertex -0.191342 -75 0.46194
   vertex -0.178311 -75 0.467124
   vertex -0.178311 0 0.467124
  endloop
 endfacet
 facet normal -0.36969 0 0.929155
  outer loop
   vertex -0.191342 -75 0.46194
   vertex -0.178311 0 0.467124
   vertex -0.191342 0 0.46194
  endloop
 endfacet
 facet normal -0.395603 0 0.918422
  outer loop
   vertex -0.191342 -75 0.46194
   vertex -0.191342 0 0.46194
   vertex -0.204222 0 0.456392
  endloop
 endfacet
 facet normal -0.395603 0 0.918422
  outer loop
   vertex -0.204222 -75 0.456392
   vertex -0.191342 -75 0.46194
   vertex -0.204222 0 0.456392
  endloop
 endfacet
 facet normal -0.421205 0 0.906965
  outer loop
   vertex -0.216942 -75 0.450484
   vertex -0.204222 0 0.456392
   vertex -0.216942 0 0.450484
  endloop
 endfacet
 facet normal -0.421205 0 0.906965
  outer loop
   vertex -0.216942 -75 0.450484
   vertex -0.204222 -75 0.456392
   vertex -0.204222 0 0.456392
  endloop
 endfacet
 facet normal -0.446477 0 0.894795
  outer loop
   vertex -0.229491 -75 0.444223
   vertex -0.216942 0 0.450484
   vertex -0.229491 0 0.444223
  endloop
 endfacet
 facet normal -0.446477 0 0.894795
  outer loop
   vertex -0.229491 -75 0.444223
   vertex -0.216942 -75 0.450484
   vertex -0.216942 0 0.450484
  endloop
 endfacet
 facet normal -0.471396 0 0.881922
  outer loop
   vertex -0.241859 -75 0.437612
   vertex -0.229491 -75 0.444223
   vertex -0.229491 0 0.444223
  endloop
 endfacet
 facet normal -0.471396 0 0.881922
  outer loop
   vertex -0.241859 -75 0.437612
   vertex -0.229491 0 0.444223
   vertex -0.241859 0 0.437612
  endloop
 endfacet
 facet normal -0.495947 0 0.868353
  outer loop
   vertex -0.254038 -75 0.430656
   vertex -0.241859 0 0.437612
   vertex -0.254038 0 0.430656
  endloop
 endfacet
 facet normal -0.495947 0 0.868353
  outer loop
   vertex -0.254038 -75 0.430656
   vertex -0.241859 -75 0.437612
   vertex -0.241859 0 0.437612
  endloop
 endfacet
 facet normal -0.520105 0 0.854102
  outer loop
   vertex -0.266016 -75 0.423362
   vertex -0.254038 -75 0.430656
   vertex -0.254038 0 0.430656
  endloop
 endfacet
 facet normal -0.520105 0 0.854102
  outer loop
   vertex -0.266016 -75 0.423362
   vertex -0.254038 0 0.430656
   vertex -0.266016 0 0.423362
  endloop
 endfacet
 facet normal -0.543855 0 0.839179
  outer loop
   vertex -0.277785 -75 0.415735
   vertex -0.266016 -75 0.423362
   vertex -0.266016 0 0.423362
  endloop
 endfacet
 facet normal -0.543855 0 0.839179
  outer loop
   vertex -0.277785 -75 0.415735
   vertex -0.266016 0 0.423362
   vertex -0.277785 0 0.415735
  endloop
 endfacet
 facet normal -0.567177 0 0.823596
  outer loop
   vertex -0.289336 -75 0.40778
   vertex -0.277785 -75 0.415735
   vertex -0.277785 0 0.415735
  endloop
 endfacet
 facet normal -0.567177 0 0.823596
  outer loop
   vertex -0.289336 -75 0.40778
   vertex -0.277785 0 0.415735
   vertex -0.289336 0 0.40778
  endloop
 endfacet
 facet normal -0.590052 0 0.807365
  outer loop
   vertex -0.300659 -75 0.399505
   vertex -0.289336 -75 0.40778
   vertex -0.289336 0 0.40778
  endloop
 endfacet
 facet normal -0.590052 0 0.807365
  outer loop
   vertex -0.300659 -75 0.399505
   vertex -0.289336 0 0.40778
   vertex -0.300659 0 0.399505
  endloop
 endfacet
 facet normal -0.612464 0 0.790499
  outer loop
   vertex -0.311745 -75 0.390916
   vertex -0.300659 -75 0.399505
   vertex -0.300659 0 0.399505
  endloop
 endfacet
 facet normal -0.612464 0 0.790499
  outer loop
   vertex -0.311745 -75 0.390916
   vertex -0.300659 0 0.399505
   vertex -0.311745 0 0.390916
  endloop
 endfacet
 facet normal -0.634394 0 0.77301
  outer loop
   vertex -0.322586 -75 0.382019
   vertex -0.311745 -75 0.390916
   vertex -0.311745 0 0.390916
  endloop
 endfacet
 facet normal -0.634394 0 0.77301
  outer loop
   vertex -0.322586 -75 0.382019
   vertex -0.311745 0 0.390916
   vertex -0.322586 0 0.382019
  endloop
 endfacet
 facet normal -0.655824 0 0.754914
  outer loop
   vertex -0.333173 -75 0.372821
   vertex -0.322586 -75 0.382019
   vertex -0.322586 0 0.382019
  endloop
 endfacet
 facet normal -0.655824 0 0.754914
  outer loop
   vertex -0.333173 -75 0.372821
   vertex -0.322586 0 0.382019
   vertex -0.333173 0 0.372821
  endloop
 endfacet
 facet normal -0.676737 0 0.736225
  outer loop
   vertex -0.343498 -75 0.36333
   vertex -0.333173 -75 0.372821
   vertex -0.333173 0 0.372821
  endloop
 endfacet
 facet normal -0.676737 0 0.736225
  outer loop
   vertex -0.343498 -75 0.36333
   vertex -0.333173 0 0.372821
   vertex -0.343498 0 0.36333
  endloop
 endfacet
 facet normal -0.69712 0 0.716954
  outer loop
   vertex -0.353553 -75 0.353553
   vertex -0.343498 -75 0.36333
   vertex -0.343498 0 0.36333
  endloop
 endfacet
 facet normal -0.69712 0 0.716954
  outer loop
   vertex -0.353553 -75 0.353553
   vertex -0.343498 0 0.36333
   vertex -0.353553 0 0.353553
  endloop
 endfacet
 facet normal -0.716954 0 0.69712
  outer loop
   vertex -0.36333 -75 0.343498
   vertex -0.353553 -75 0.353553
   vertex -0.353553 0 0.353553
  endloop
 endfacet
 facet normal -0.716954 0 0.69712
  outer loop
   vertex -0.36333 -75 0.343498
   vertex -0.353553 0 0.353553
   vertex -0.36333 0 0.343498
  endloop
 endfacet
 facet normal -0.736225 0 0.676737
  outer loop
   vertex -0.372821 -75 0.333173
   vertex -0.36333 -75 0.343498
   vertex -0.36333 0 0.343498
  endloop
 endfacet
 facet normal -0.736225 0 0.676737
  outer loop
   vertex -0.372821 -75 0.333173
   vertex -0.36333 0 0.343498
   vertex -0.372821 0 0.333173
  endloop
 endfacet
 facet normal -0.754914 0 0.655824
  outer loop
   vertex -0.382019 -75 0.322586
   vertex -0.372821 -75 0.333173
   vertex -0.372821 0 0.333173
  endloop
 endfacet
 facet normal -0.754914 0 0.655824
  outer loop
   vertex -0.382019 -75 0.322586
   vertex -0.372821 0 0.333173
   vertex -0.382019 0 0.322586
  endloop
 endfacet
 facet normal -0.77301 0 0.634394
  outer loop
   vertex -0.390916 -75 0.311745
   vertex -0.382019 -75 0.322586
   vertex -0.382019 0 0.322586
  endloop
 endfacet
 facet normal -0.77301 0 0.634394
  outer loop
   vertex -0.390916 -75 0.311745
   vertex -0.382019 0 0.322586
   vertex -0.390916 0 0.311745
  endloop
 endfacet
 facet normal -0.790499 0 0.612464
  outer loop
   vertex -0.399505 -75 0.300659
   vertex -0.390916 -75 0.311745
   vertex -0.390916 0 0.311745
  endloop
 endfacet
 facet normal -0.790499 0 0.612464
  outer loop
   vertex -0.399505 -75 0.300659
   vertex -0.390916 0 0.311745
   vertex -0.399505 0 0.300659
  endloop
 endfacet
 facet normal -0.807365 0 0.590052
  outer loop
   vertex -0.40778 -75 0.289336
   vertex -0.399505 -75 0.300659
   vertex -0.399505 0 0.300659
  endloop
 endfacet
 facet normal -0.807365 0 0.590052
  outer loop
   vertex -0.40778 -75 0.289336
   vertex -0.399505 0 0.300659
   vertex -0.40778 0 0.289336
  endloop
 endfacet
 facet normal -0.823596 0 0.567177
  outer loop
   vertex -0.415735 -75 0.277785
   vertex -0.40778 -75 0.289336
   vertex -0.40778 0 0.289336
  endloop
 endfacet
 facet normal -0.823596 0 0.567177
  outer loop
   vertex -0.415735 -75 0.277785
   vertex -0.40778 0 0.289336
   vertex -0.415735 0 0.277785
  endloop
 endfacet
 facet normal -0.839179 0 0.543855
  outer loop
   vertex -0.415735 -75 0.277785
   vertex -0.415735 0 0.277785
   vertex -0.423362 0 0.266016
  endloop
 endfacet
 facet normal -0.839179 0 0.543855
  outer loop
   vertex -0.423362 -75 0.266016
   vertex -0.415735 -75 0.277785
   vertex -0.423362 0 0.266016
  endloop
 endfacet
 facet normal -0.854102 0 0.520105
  outer loop
   vertex -0.430656 -75 0.254038
   vertex -0.423362 -75 0.266016
   vertex -0.423362 0 0.266016
  endloop
 endfacet
 facet normal -0.854102 0 0.520105
  outer loop
   vertex -0.430656 -75 0.254038
   vertex -0.423362 0 0.266016
   vertex -0.430656 0 0.254038
  endloop
 endfacet
 facet normal -0.868353 0 0.495947
  outer loop
   vertex -0.437612 -75 0.241859
   vertex -0.430656 -75 0.254038
   vertex -0.430656 0 0.254038
  endloop
 endfacet
 facet normal -0.868353 0 0.495947
  outer loop
   vertex -0.437612 -75 0.241859
   vertex -0.430656 0 0.254038
   vertex -0.437612 0 0.241859
  endloop
 endfacet
 facet normal -0.881922 0 0.471396
  outer loop
   vertex -0.437612 -75 0.241859
   vertex -0.437612 0 0.241859
   vertex -0.444223 0 0.229491
  endloop
 endfacet
 facet normal -0.881922 0 0.471396
  outer loop
   vertex -0.444223 -75 0.229491
   vertex -0.437612 -75 0.241859
   vertex -0.444223 0 0.229491
  endloop
 endfacet
 facet normal -0.894795 0 0.446477
  outer loop
   vertex -0.450484 -75 0.216942
   vertex -0.444223 -75 0.229491
   vertex -0.444223 0 0.229491
  endloop
 endfacet
 facet normal -0.894795 0 0.446477
  outer loop
   vertex -0.450484 -75 0.216942
   vertex -0.444223 0 0.229491
   vertex -0.450484 0 0.216942
  endloop
 endfacet
 facet normal -0.906965 0 0.421205
  outer loop
   vertex -0.456392 -75 0.204222
   vertex -0.450484 -75 0.216942
   vertex -0.450484 0 0.216942
  endloop
 endfacet
 facet normal -0.906965 0 0.421205
  outer loop
   vertex -0.456392 -75 0.204222
   vertex -0.450484 0 0.216942
   vertex -0.456392 0 0.204222
  endloop
 endfacet
 facet normal -0.918422 0 0.395603
  outer loop
   vertex -0.46194 -75 0.191342
   vertex -0.456392 -75 0.204222
   vertex -0.456392 0 0.204222
  endloop
 endfacet
 facet normal -0.918422 0 0.395603
  outer loop
   vertex -0.46194 -75 0.191342
   vertex -0.456392 0 0.204222
   vertex -0.46194 0 0.191342
  endloop
 endfacet
 facet normal -0.929155 0 0.36969
  outer loop
   vertex -0.467124 -75 0.178311
   vertex -0.46194 -75 0.191342
   vertex -0.46194 0 0.191342
  endloop
 endfacet
 facet normal -0.929155 0 0.36969
  outer loop
   vertex -0.467124 -75 0.178311
   vertex -0.46194 0 0.191342
   vertex -0.467124 0 0.178311
  endloop
 endfacet
 facet normal -0.939159 0 0.343482
  outer loop
   vertex -0.471942 -75 0.16514
   vertex -0.467124 -75 0.178311
   vertex -0.467124 0 0.178311
  endloop
 endfacet
 facet normal -0.939159 0 0.343482
  outer loop
   vertex -0.471942 -75 0.16514
   vertex -0.467124 0 0.178311
   vertex -0.471942 0 0.16514
  endloop
 endfacet
 facet normal -0.948422 0 0.317011
  outer loop
   vertex -0.476388 -75 0.151838
   vertex -0.471942 0 0.16514
   vertex -0.476388 0 0.151838
  endloop
 endfacet
 facet normal -0.956941 0 0.290283
  outer loop
   vertex -0.476388 -75 0.151838
   vertex -0.476388 0 0.151838
   vertex -0.480459 0 0.138418
  endloop
 endfacet
 facet normal -0.948422 0 0.317011
  outer loop
   vertex -0.476388 -75 0.151838
   vertex -0.471942 -75 0.16514
   vertex -0.471942 0 0.16514
  endloop
 endfacet
 facet normal -0.956941 0 0.290283
  outer loop
   vertex -0.480459 -75 0.138418
   vertex -0.476388 -75 0.151838
   vertex -0.480459 0 0.138418
  endloop
 endfacet
 facet normal -0.964705 0 0.263333
  outer loop
   vertex -0.484152 -75 0.124888
   vertex -0.480459 0 0.138418
   vertex -0.484152 0 0.124888
  endloop
 endfacet
 facet normal -0.964705 0 0.263333
  outer loop
   vertex -0.484152 -75 0.124888
   vertex -0.480459 -75 0.138418
   vertex -0.480459 0 0.138418
  endloop
 endfacet
 facet normal -0.971711 0 0.236172
  outer loop
   vertex -0.487464 -75 0.11126
   vertex -0.484152 0 0.124888
   vertex -0.487464 0 0.11126
  endloop
 endfacet
 facet normal -0.971711 0 0.236172
  outer loop
   vertex -0.487464 -75 0.11126
   vertex -0.484152 -75 0.124888
   vertex -0.484152 0 0.124888
  endloop
 endfacet
 facet normal -0.977953 0 0.208826
  outer loop
   vertex -0.490393 -75 0.0975452
   vertex -0.487464 0 0.11126
   vertex -0.490393 0 0.0975452
  endloop
 endfacet
 facet normal -0.977953 0 0.208826
  outer loop
   vertex -0.490393 -75 0.0975452
   vertex -0.487464 -75 0.11126
   vertex -0.487464 0 0.11126
  endloop
 endfacet
 facet normal -0.983425 0 0.181317
  outer loop
   vertex -0.492936 -75 0.0837531
   vertex -0.490393 0 0.0975452
   vertex -0.492936 0 0.0837531
  endloop
 endfacet
 facet normal -0.983425 0 0.181317
  outer loop
   vertex -0.492936 -75 0.0837531
   vertex -0.490393 -75 0.0975452
   vertex -0.490393 0 0.0975452
  endloop
 endfacet
 facet normal -0.988123 0 0.153664
  outer loop
   vertex -0.495091 -75 0.0698952
   vertex -0.492936 0 0.0837531
   vertex -0.495091 0 0.0698952
  endloop
 endfacet
 facet normal -0.988123 0 0.153664
  outer loop
   vertex -0.495091 -75 0.0698952
   vertex -0.492936 -75 0.0837531
   vertex -0.492936 0 0.0837531
  endloop
 endfacet
 facet normal -0.992044 0 0.125889
  outer loop
   vertex -0.496856 -75 0.0559822
   vertex -0.495091 0 0.0698952
   vertex -0.496856 0 0.0559822
  endloop
 endfacet
 facet normal -0.992044 0 0.125889
  outer loop
   vertex -0.496856 -75 0.0559822
   vertex -0.495091 -75 0.0698952
   vertex -0.495091 0 0.0698952
  endloop
 endfacet
 facet normal -0.995185 0 0.0980165
  outer loop
   vertex -0.498231 -75 0.0420253
   vertex -0.496856 0 0.0559822
   vertex -0.498231 0 0.0420253
  endloop
 endfacet
 facet normal -0.995185 0 0.0980165
  outer loop
   vertex -0.498231 -75 0.0420253
   vertex -0.496856 -75 0.0559822
   vertex -0.496856 0 0.0559822
  endloop
 endfacet
 facet normal -0.997542 0 0.0700678
  outer loop
   vertex -0.499213 -75 0.0280352
   vertex -0.498231 0 0.0420253
   vertex -0.499213 0 0.0280352
  endloop
 endfacet
 facet normal -0.997542 0 0.0700678
  outer loop
   vertex -0.499213 -75 0.0280352
   vertex -0.498231 -75 0.0420253
   vertex -0.498231 0 0.0420253
  endloop
 endfacet
 facet normal -0.999115 0 0.0420624
  outer loop
   vertex -0.499803 -75 0.0140231
   vertex -0.499213 -75 0.0280352
   vertex -0.499213 0 0.0280352
  endloop
 endfacet
 facet normal -0.999115 0 0.0420624
  outer loop
   vertex -0.499803 -75 0.0140231
   vertex -0.499213 0 0.0280352
   vertex -0.499803 0 0.0140231
  endloop
 endfacet
 facet normal -0.999902 0 0.0140244
  outer loop
   vertex -0.5 -75 0
   vertex -0.499803 0 0.0140231
   vertex -0.5 0 0
  endloop
 endfacet
 facet normal -0.999902 0 0.0140244
  outer loop
   vertex -0.5 -75 0
   vertex -0.499803 -75 0.0140231
   vertex -0.499803 0 0.0140231
  endloop
 endfacet
endsolid VIRTUAL_SURFACE
